<mxfile host="app.diagrams.net" modified="2022-03-10T08:47:34.010Z" agent="5.0 (Windows NT 10.0; Win64; x64) AppleWebKit/537.36 (KHTML, like Gecko) Chrome/99.0.4844.51 Safari/537.36" etag="vifrM77nUT2UV8xIpqKv" version="17.1.0" type="github">
  <diagram id="kgpKYQtTHZ0yAKxKKP6v" name="Page-1">
    <mxGraphModel dx="1038" dy="539" grid="1" gridSize="10" guides="1" tooltips="1" connect="1" arrows="1" fold="1" page="1" pageScale="1" pageWidth="850" pageHeight="1100" math="0" shadow="0">
      <root>
        <mxCell id="0" />
        <mxCell id="1" parent="0" />
        <mxCell id="c2XQxgMK0aHP51GLpQOd-15" value="" style="group" vertex="1" connectable="0" parent="1">
          <mxGeometry x="440" y="50" width="150" height="330" as="geometry" />
        </mxCell>
        <mxCell id="c2XQxgMK0aHP51GLpQOd-16" value="" style="rounded=0;whiteSpace=wrap;html=1;dashed=1;" vertex="1" parent="c2XQxgMK0aHP51GLpQOd-15">
          <mxGeometry width="149.99999999999994" height="330" as="geometry" />
        </mxCell>
        <mxCell id="c2XQxgMK0aHP51GLpQOd-17" value="智慧供应链平台" style="text;html=1;strokeColor=none;fillColor=none;align=center;verticalAlign=middle;whiteSpace=wrap;rounded=0;dashed=1;" vertex="1" parent="c2XQxgMK0aHP51GLpQOd-15">
          <mxGeometry width="126.9230769230769" height="30" as="geometry" />
        </mxCell>
        <mxCell id="3nuBFxr9cyL0pnOWT2aG-1" value="技术内勤" style="shape=umlLifeline;perimeter=lifelinePerimeter;container=1;collapsible=0;recursiveResize=0;rounded=0;shadow=0;strokeWidth=1;" parent="1" vertex="1">
          <mxGeometry x="30" y="80" width="100" height="300" as="geometry" />
        </mxCell>
        <mxCell id="3nuBFxr9cyL0pnOWT2aG-2" value="" style="points=[];perimeter=orthogonalPerimeter;rounded=0;shadow=0;strokeWidth=1;" parent="3nuBFxr9cyL0pnOWT2aG-1" vertex="1">
          <mxGeometry x="45" y="70" width="10" height="190" as="geometry" />
        </mxCell>
        <mxCell id="c2XQxgMK0aHP51GLpQOd-5" value="" style="edgeStyle=orthogonalEdgeStyle;rounded=0;orthogonalLoop=1;jettySize=auto;html=1;" edge="1" parent="1">
          <mxGeometry relative="1" as="geometry">
            <mxPoint x="319.5" y="197" as="sourcePoint" />
            <mxPoint x="474.5" y="197" as="targetPoint" />
          </mxGeometry>
        </mxCell>
        <mxCell id="c2XQxgMK0aHP51GLpQOd-6" value="&amp;nbsp;派发工单&amp;nbsp;" style="edgeLabel;html=1;align=center;verticalAlign=middle;resizable=0;points=[];labelBorderColor=default;" vertex="1" connectable="0" parent="c2XQxgMK0aHP51GLpQOd-5">
          <mxGeometry x="-0.2348" y="-3" relative="1" as="geometry">
            <mxPoint x="22" y="-3" as="offset" />
          </mxGeometry>
        </mxCell>
        <mxCell id="3nuBFxr9cyL0pnOWT2aG-5" value="数供平台" style="shape=umlLifeline;perimeter=lifelinePerimeter;container=1;collapsible=0;recursiveResize=0;rounded=0;shadow=0;strokeWidth=1;" parent="1" vertex="1">
          <mxGeometry x="270" y="80" width="100" height="300" as="geometry" />
        </mxCell>
        <mxCell id="3nuBFxr9cyL0pnOWT2aG-6" value="" style="points=[];perimeter=orthogonalPerimeter;rounded=0;shadow=0;strokeWidth=1;" parent="3nuBFxr9cyL0pnOWT2aG-5" vertex="1">
          <mxGeometry x="45" y="80" width="10" height="160" as="geometry" />
        </mxCell>
        <mxCell id="c2XQxgMK0aHP51GLpQOd-1" style="edgeStyle=orthogonalEdgeStyle;rounded=0;orthogonalLoop=1;jettySize=auto;html=1;exitX=1.1;exitY=0.144;exitDx=0;exitDy=0;exitPerimeter=0;entryX=0.06;entryY=0.114;entryDx=0;entryDy=0;entryPerimeter=0;" edge="1" parent="1" source="3nuBFxr9cyL0pnOWT2aG-2" target="3nuBFxr9cyL0pnOWT2aG-6">
          <mxGeometry relative="1" as="geometry">
            <mxPoint x="180" y="230" as="sourcePoint" />
            <mxPoint x="310" y="177" as="targetPoint" />
            <Array as="points">
              <mxPoint x="316" y="177" />
            </Array>
          </mxGeometry>
        </mxCell>
        <mxCell id="c2XQxgMK0aHP51GLpQOd-2" value="填写工单&lt;br&gt;&amp;nbsp;参考配套物资清单内物资进行选择&amp;nbsp;" style="edgeLabel;html=1;align=center;verticalAlign=middle;resizable=0;points=[];labelBorderColor=default;" vertex="1" connectable="0" parent="c2XQxgMK0aHP51GLpQOd-1">
          <mxGeometry x="0.2206" y="-2" relative="1" as="geometry">
            <mxPoint x="-29" y="1" as="offset" />
          </mxGeometry>
        </mxCell>
        <mxCell id="c2XQxgMK0aHP51GLpQOd-9" value="" style="edgeStyle=orthogonalEdgeStyle;rounded=0;orthogonalLoop=1;jettySize=auto;html=1;" edge="1" parent="1">
          <mxGeometry relative="1" as="geometry">
            <mxPoint x="474.5" y="219" as="sourcePoint" />
            <mxPoint x="609.5" y="219" as="targetPoint" />
          </mxGeometry>
        </mxCell>
        <mxCell id="c2XQxgMK0aHP51GLpQOd-10" value="确认出库&lt;br&gt;&amp;nbsp;打印出库单&amp;nbsp;" style="edgeLabel;html=1;align=center;verticalAlign=middle;resizable=0;points=[];labelBorderColor=default;" vertex="1" connectable="0" parent="c2XQxgMK0aHP51GLpQOd-9">
          <mxGeometry x="0.1896" y="-1" relative="1" as="geometry">
            <mxPoint x="-9" as="offset" />
          </mxGeometry>
        </mxCell>
        <mxCell id="c2XQxgMK0aHP51GLpQOd-3" value="普通内勤(仓储员)" style="shape=umlLifeline;perimeter=lifelinePerimeter;container=1;collapsible=0;recursiveResize=0;rounded=0;shadow=0;strokeWidth=1;" vertex="1" parent="1">
          <mxGeometry x="425" y="80" width="100" height="300" as="geometry" />
        </mxCell>
        <mxCell id="c2XQxgMK0aHP51GLpQOd-4" value="" style="points=[];perimeter=orthogonalPerimeter;rounded=0;shadow=0;strokeWidth=1;" vertex="1" parent="c2XQxgMK0aHP51GLpQOd-3">
          <mxGeometry x="45" y="80" width="10" height="160" as="geometry" />
        </mxCell>
        <mxCell id="c2XQxgMK0aHP51GLpQOd-13" value="" style="edgeStyle=orthogonalEdgeStyle;rounded=0;orthogonalLoop=1;jettySize=auto;html=1;" edge="1" parent="1" source="c2XQxgMK0aHP51GLpQOd-7" target="c2XQxgMK0aHP51GLpQOd-11">
          <mxGeometry relative="1" as="geometry" />
        </mxCell>
        <mxCell id="c2XQxgMK0aHP51GLpQOd-14" value="&amp;nbsp;签字确认&amp;nbsp;" style="edgeLabel;html=1;align=center;verticalAlign=middle;resizable=0;points=[];labelBorderColor=default;" vertex="1" connectable="0" parent="c2XQxgMK0aHP51GLpQOd-13">
          <mxGeometry x="0.3107" y="2" relative="1" as="geometry">
            <mxPoint x="-7" y="2" as="offset" />
          </mxGeometry>
        </mxCell>
        <mxCell id="c2XQxgMK0aHP51GLpQOd-7" value="外勤人员" style="shape=umlLifeline;perimeter=lifelinePerimeter;container=1;collapsible=0;recursiveResize=0;rounded=0;shadow=0;strokeWidth=1;" vertex="1" parent="1">
          <mxGeometry x="560" y="80" width="100" height="300" as="geometry" />
        </mxCell>
        <mxCell id="c2XQxgMK0aHP51GLpQOd-8" value="" style="points=[];perimeter=orthogonalPerimeter;rounded=0;shadow=0;strokeWidth=1;" vertex="1" parent="c2XQxgMK0aHP51GLpQOd-7">
          <mxGeometry x="45" y="80" width="10" height="160" as="geometry" />
        </mxCell>
        <mxCell id="c2XQxgMK0aHP51GLpQOd-11" value="普通内勤(仓储员)" style="shape=umlLifeline;perimeter=lifelinePerimeter;container=1;collapsible=0;recursiveResize=0;rounded=0;shadow=0;strokeWidth=1;" vertex="1" parent="1">
          <mxGeometry x="690" y="80" width="100" height="300" as="geometry" />
        </mxCell>
        <mxCell id="c2XQxgMK0aHP51GLpQOd-12" value="" style="points=[];perimeter=orthogonalPerimeter;rounded=0;shadow=0;strokeWidth=1;" vertex="1" parent="c2XQxgMK0aHP51GLpQOd-11">
          <mxGeometry x="45" y="80" width="10" height="160" as="geometry" />
        </mxCell>
        <mxCell id="c2XQxgMK0aHP51GLpQOd-18" style="edgeStyle=orthogonalEdgeStyle;rounded=0;orthogonalLoop=1;jettySize=auto;html=1;entryX=1.14;entryY=0.649;entryDx=0;entryDy=0;entryPerimeter=0;" edge="1" parent="1" source="c2XQxgMK0aHP51GLpQOd-12" target="c2XQxgMK0aHP51GLpQOd-8">
          <mxGeometry relative="1" as="geometry">
            <Array as="points">
              <mxPoint x="710" y="264" />
              <mxPoint x="710" y="264" />
            </Array>
          </mxGeometry>
        </mxCell>
        <mxCell id="c2XQxgMK0aHP51GLpQOd-19" value="&amp;nbsp;核对物资&amp;nbsp;&lt;br&gt;&amp;nbsp;交接清楚&amp;nbsp;" style="edgeLabel;html=1;align=center;verticalAlign=middle;resizable=0;points=[];labelBorderColor=default;" vertex="1" connectable="0" parent="c2XQxgMK0aHP51GLpQOd-18">
          <mxGeometry x="-0.2411" y="-1" relative="1" as="geometry">
            <mxPoint x="-10" as="offset" />
          </mxGeometry>
        </mxCell>
      </root>
    </mxGraphModel>
  </diagram>
</mxfile>
